<mxfile host="app.diagrams.net" modified="2021-05-10T16:30:18.402Z" agent="5.0 (Macintosh; Intel Mac OS X 10_15_7) AppleWebKit/537.36 (KHTML, like Gecko) Chrome/90.0.4430.93 Safari/537.36" etag="UoGJ09KKgwVg68djQHF1" version="14.6.11" type="github">
  <diagram id="prtHgNgQTEPvFCAcTncT" name="Page-1">
    <mxGraphModel dx="1086" dy="560" grid="1" gridSize="10" guides="1" tooltips="1" connect="1" arrows="1" fold="1" page="1" pageScale="1" pageWidth="827" pageHeight="1169" math="0" shadow="0">
      <root>
        <mxCell id="0" />
        <mxCell id="1" parent="0" />
        <mxCell id="t9nCofjm7gqaK9wJMrFR-61" value="page" style="rounded=1;whiteSpace=wrap;html=1;" parent="1" vertex="1">
          <mxGeometry x="30" y="1500" width="130" height="260" as="geometry" />
        </mxCell>
        <mxCell id="t9nCofjm7gqaK9wJMrFR-53" value="page" style="rounded=1;whiteSpace=wrap;html=1;" parent="1" vertex="1">
          <mxGeometry x="30" y="1169" width="130" height="260" as="geometry" />
        </mxCell>
        <mxCell id="t9nCofjm7gqaK9wJMrFR-3" value="page" style="rounded=1;whiteSpace=wrap;html=1;" parent="1" vertex="1">
          <mxGeometry x="40" y="540" width="130" height="260" as="geometry" />
        </mxCell>
        <mxCell id="t9nCofjm7gqaK9wJMrFR-4" value="card_A" style="rounded=0;whiteSpace=wrap;html=1;" parent="1" vertex="1">
          <mxGeometry x="65" y="560" width="80" height="35.5" as="geometry" />
        </mxCell>
        <mxCell id="t9nCofjm7gqaK9wJMrFR-5" value="card_B" style="rounded=0;whiteSpace=wrap;html=1;" parent="1" vertex="1">
          <mxGeometry x="65" y="620" width="80" height="40" as="geometry" />
        </mxCell>
        <mxCell id="t9nCofjm7gqaK9wJMrFR-6" value="card_C" style="rounded=0;whiteSpace=wrap;html=1;" parent="1" vertex="1">
          <mxGeometry x="65" y="680" width="80" height="40" as="geometry" />
        </mxCell>
        <mxCell id="t9nCofjm7gqaK9wJMrFR-7" value="card_D" style="rounded=0;whiteSpace=wrap;html=1;" parent="1" vertex="1">
          <mxGeometry x="65" y="740" width="80" height="40" as="geometry" />
        </mxCell>
        <mxCell id="t9nCofjm7gqaK9wJMrFR-11" style="rounded=0;orthogonalLoop=1;jettySize=auto;html=1;exitX=1;exitY=0.5;exitDx=0;exitDy=0;entryX=0;entryY=0.5;entryDx=0;entryDy=0;entryPerimeter=0;" parent="1" source="t9nCofjm7gqaK9wJMrFR-8" target="t9nCofjm7gqaK9wJMrFR-10" edge="1">
          <mxGeometry relative="1" as="geometry" />
        </mxCell>
        <mxCell id="t9nCofjm7gqaK9wJMrFR-12" value="request" style="edgeLabel;html=1;align=center;verticalAlign=middle;resizable=0;points=[];" parent="t9nCofjm7gqaK9wJMrFR-11" vertex="1" connectable="0">
          <mxGeometry x="-0.519" y="-1" relative="1" as="geometry">
            <mxPoint x="5" y="-28" as="offset" />
          </mxGeometry>
        </mxCell>
        <mxCell id="t9nCofjm7gqaK9wJMrFR-8" value="page" style="rounded=1;whiteSpace=wrap;html=1;" parent="1" vertex="1">
          <mxGeometry x="40" y="230" width="130" height="250" as="geometry" />
        </mxCell>
        <mxCell id="t9nCofjm7gqaK9wJMrFR-13" style="rounded=0;orthogonalLoop=1;jettySize=auto;html=1;exitX=0;exitY=0;exitDx=0;exitDy=127.5;exitPerimeter=0;entryX=1;entryY=0.5;entryDx=0;entryDy=0;" parent="1" source="t9nCofjm7gqaK9wJMrFR-10" target="t9nCofjm7gqaK9wJMrFR-3" edge="1">
          <mxGeometry relative="1" as="geometry" />
        </mxCell>
        <mxCell id="t9nCofjm7gqaK9wJMrFR-10" value="backend_interface" style="shape=cylinder3;whiteSpace=wrap;html=1;boundedLbl=1;backgroundOutline=1;size=15;" parent="1" vertex="1">
          <mxGeometry x="400" y="400" width="120" height="180" as="geometry" />
        </mxCell>
        <mxCell id="t9nCofjm7gqaK9wJMrFR-14" value="card A&lt;br&gt;card B&lt;br&gt;card C&lt;br&gt;card D" style="text;html=1;align=center;verticalAlign=middle;resizable=0;points=[];autosize=1;strokeColor=none;" parent="1" vertex="1">
          <mxGeometry x="280" y="555" width="50" height="60" as="geometry" />
        </mxCell>
        <mxCell id="t9nCofjm7gqaK9wJMrFR-16" value="1" style="text;html=1;align=center;verticalAlign=middle;resizable=0;points=[];autosize=1;strokeColor=none;" parent="1" vertex="1">
          <mxGeometry x="220" y="330" width="20" height="20" as="geometry" />
        </mxCell>
        <mxCell id="t9nCofjm7gqaK9wJMrFR-17" value="2" style="text;html=1;align=center;verticalAlign=middle;resizable=0;points=[];autosize=1;strokeColor=none;" parent="1" vertex="1">
          <mxGeometry x="290" y="535" width="20" height="20" as="geometry" />
        </mxCell>
        <mxCell id="t9nCofjm7gqaK9wJMrFR-38" style="rounded=0;orthogonalLoop=1;jettySize=auto;html=1;dashed=1;entryX=0;entryY=0.5;entryDx=0;entryDy=0;entryPerimeter=0;exitX=1;exitY=0.5;exitDx=0;exitDy=0;" parent="1" source="t9nCofjm7gqaK9wJMrFR-54" target="t9nCofjm7gqaK9wJMrFR-45" edge="1">
          <mxGeometry relative="1" as="geometry">
            <mxPoint x="220" y="1050" as="sourcePoint" />
            <mxPoint x="500" y="1080" as="targetPoint" />
          </mxGeometry>
        </mxCell>
        <mxCell id="6w-f6-EQmlh_0rkee04y-9" value="3 async request card interface" style="edgeLabel;html=1;align=center;verticalAlign=middle;resizable=0;points=[];" vertex="1" connectable="0" parent="t9nCofjm7gqaK9wJMrFR-38">
          <mxGeometry x="-0.3565" y="1" relative="1" as="geometry">
            <mxPoint as="offset" />
          </mxGeometry>
        </mxCell>
        <mxCell id="t9nCofjm7gqaK9wJMrFR-39" style="edgeStyle=none;rounded=0;orthogonalLoop=1;jettySize=auto;html=1;exitX=1;exitY=0.5;exitDx=0;exitDy=0;entryX=0;entryY=0.5;entryDx=0;entryDy=0;entryPerimeter=0;dashed=1;" parent="1" source="t9nCofjm7gqaK9wJMrFR-55" target="t9nCofjm7gqaK9wJMrFR-46" edge="1">
          <mxGeometry relative="1" as="geometry">
            <mxPoint x="220" y="1145.5" as="sourcePoint" />
            <mxPoint x="530" y="1332.5" as="targetPoint" />
          </mxGeometry>
        </mxCell>
        <mxCell id="t9nCofjm7gqaK9wJMrFR-41" style="edgeStyle=none;rounded=0;orthogonalLoop=1;jettySize=auto;html=1;exitX=1;exitY=0.5;exitDx=0;exitDy=0;entryX=0;entryY=0.5;entryDx=0;entryDy=0;entryPerimeter=0;dashed=1;" parent="1" source="t9nCofjm7gqaK9wJMrFR-56" target="t9nCofjm7gqaK9wJMrFR-47" edge="1">
          <mxGeometry relative="1" as="geometry">
            <mxPoint x="220" y="1255.5" as="sourcePoint" />
            <mxPoint x="530" y="1332.5" as="targetPoint" />
          </mxGeometry>
        </mxCell>
        <mxCell id="t9nCofjm7gqaK9wJMrFR-42" style="edgeStyle=none;rounded=0;orthogonalLoop=1;jettySize=auto;html=1;exitX=1;exitY=0.5;exitDx=0;exitDy=0;entryX=0;entryY=0.5;entryDx=0;entryDy=0;entryPerimeter=0;dashed=1;" parent="1" source="t9nCofjm7gqaK9wJMrFR-57" target="t9nCofjm7gqaK9wJMrFR-48" edge="1">
          <mxGeometry relative="1" as="geometry">
            <mxPoint x="220" y="1355.5" as="sourcePoint" />
            <mxPoint x="530" y="1332.5" as="targetPoint" />
          </mxGeometry>
        </mxCell>
        <mxCell id="6w-f6-EQmlh_0rkee04y-2" style="edgeStyle=none;rounded=0;orthogonalLoop=1;jettySize=auto;html=1;exitX=0;exitY=0.5;exitDx=0;exitDy=0;exitPerimeter=0;entryX=0.75;entryY=0;entryDx=0;entryDy=0;" edge="1" parent="1" source="t9nCofjm7gqaK9wJMrFR-44" target="t9nCofjm7gqaK9wJMrFR-53">
          <mxGeometry relative="1" as="geometry" />
        </mxCell>
        <mxCell id="t9nCofjm7gqaK9wJMrFR-44" value="page_service" style="shape=cylinder3;whiteSpace=wrap;html=1;boundedLbl=1;backgroundOutline=1;size=15;" parent="1" vertex="1">
          <mxGeometry x="580" y="920" width="90" height="100" as="geometry" />
        </mxCell>
        <mxCell id="6w-f6-EQmlh_0rkee04y-3" style="edgeStyle=none;rounded=0;orthogonalLoop=1;jettySize=auto;html=1;exitX=0;exitY=0.5;exitDx=0;exitDy=0;exitPerimeter=0;entryX=1;entryY=0.5;entryDx=0;entryDy=0;" edge="1" parent="1" source="t9nCofjm7gqaK9wJMrFR-45" target="t9nCofjm7gqaK9wJMrFR-62">
          <mxGeometry relative="1" as="geometry" />
        </mxCell>
        <mxCell id="6w-f6-EQmlh_0rkee04y-12" value="4 async response card data" style="edgeLabel;html=1;align=center;verticalAlign=middle;resizable=0;points=[];" vertex="1" connectable="0" parent="6w-f6-EQmlh_0rkee04y-3">
          <mxGeometry x="-0.5591" relative="1" as="geometry">
            <mxPoint as="offset" />
          </mxGeometry>
        </mxCell>
        <mxCell id="t9nCofjm7gqaK9wJMrFR-45" value="service_A" style="shape=cylinder3;whiteSpace=wrap;html=1;boundedLbl=1;backgroundOutline=1;size=15;" parent="1" vertex="1">
          <mxGeometry x="580" y="1080" width="90" height="100" as="geometry" />
        </mxCell>
        <mxCell id="6w-f6-EQmlh_0rkee04y-4" style="edgeStyle=none;rounded=0;orthogonalLoop=1;jettySize=auto;html=1;exitX=0;exitY=0.5;exitDx=0;exitDy=0;exitPerimeter=0;entryX=1;entryY=0.5;entryDx=0;entryDy=0;" edge="1" parent="1" source="t9nCofjm7gqaK9wJMrFR-46" target="t9nCofjm7gqaK9wJMrFR-63">
          <mxGeometry relative="1" as="geometry" />
        </mxCell>
        <mxCell id="t9nCofjm7gqaK9wJMrFR-46" value="service_B" style="shape=cylinder3;whiteSpace=wrap;html=1;boundedLbl=1;backgroundOutline=1;size=15;" parent="1" vertex="1">
          <mxGeometry x="580" y="1224.5" width="90" height="100" as="geometry" />
        </mxCell>
        <mxCell id="6w-f6-EQmlh_0rkee04y-5" style="edgeStyle=none;rounded=0;orthogonalLoop=1;jettySize=auto;html=1;exitX=0;exitY=0.5;exitDx=0;exitDy=0;exitPerimeter=0;entryX=1;entryY=0.5;entryDx=0;entryDy=0;" edge="1" parent="1" source="t9nCofjm7gqaK9wJMrFR-47" target="t9nCofjm7gqaK9wJMrFR-64">
          <mxGeometry relative="1" as="geometry" />
        </mxCell>
        <mxCell id="t9nCofjm7gqaK9wJMrFR-47" value="service_C" style="shape=cylinder3;whiteSpace=wrap;html=1;boundedLbl=1;backgroundOutline=1;size=15;" parent="1" vertex="1">
          <mxGeometry x="580" y="1360" width="90" height="100" as="geometry" />
        </mxCell>
        <mxCell id="6w-f6-EQmlh_0rkee04y-6" style="edgeStyle=none;rounded=0;orthogonalLoop=1;jettySize=auto;html=1;exitX=0;exitY=0.5;exitDx=0;exitDy=0;exitPerimeter=0;entryX=1;entryY=0.5;entryDx=0;entryDy=0;" edge="1" parent="1" source="t9nCofjm7gqaK9wJMrFR-48" target="t9nCofjm7gqaK9wJMrFR-65">
          <mxGeometry relative="1" as="geometry" />
        </mxCell>
        <mxCell id="t9nCofjm7gqaK9wJMrFR-48" value="service_D" style="shape=cylinder3;whiteSpace=wrap;html=1;boundedLbl=1;backgroundOutline=1;size=15;" parent="1" vertex="1">
          <mxGeometry x="580" y="1510" width="90" height="100" as="geometry" />
        </mxCell>
        <mxCell id="t9nCofjm7gqaK9wJMrFR-49" style="edgeStyle=none;rounded=0;orthogonalLoop=1;jettySize=auto;html=1;exitX=1;exitY=1;exitDx=0;exitDy=0;dashed=1;" parent="1" source="t9nCofjm7gqaK9wJMrFR-6" target="t9nCofjm7gqaK9wJMrFR-6" edge="1">
          <mxGeometry relative="1" as="geometry" />
        </mxCell>
        <mxCell id="t9nCofjm7gqaK9wJMrFR-50" style="edgeStyle=none;rounded=0;orthogonalLoop=1;jettySize=auto;html=1;exitX=1;exitY=1;exitDx=0;exitDy=0;dashed=1;" parent="1" source="t9nCofjm7gqaK9wJMrFR-3" target="t9nCofjm7gqaK9wJMrFR-3" edge="1">
          <mxGeometry relative="1" as="geometry" />
        </mxCell>
        <mxCell id="t9nCofjm7gqaK9wJMrFR-51" style="edgeStyle=none;rounded=0;orthogonalLoop=1;jettySize=auto;html=1;exitX=0.5;exitY=0;exitDx=0;exitDy=0;dashed=1;" parent="1" source="t9nCofjm7gqaK9wJMrFR-3" target="t9nCofjm7gqaK9wJMrFR-3" edge="1">
          <mxGeometry relative="1" as="geometry" />
        </mxCell>
        <mxCell id="6w-f6-EQmlh_0rkee04y-1" style="rounded=0;orthogonalLoop=1;jettySize=auto;html=1;exitX=1;exitY=0.5;exitDx=0;exitDy=0;entryX=0;entryY=0.5;entryDx=0;entryDy=0;entryPerimeter=0;" edge="1" parent="1" source="t9nCofjm7gqaK9wJMrFR-52" target="t9nCofjm7gqaK9wJMrFR-44">
          <mxGeometry relative="1" as="geometry" />
        </mxCell>
        <mxCell id="t9nCofjm7gqaK9wJMrFR-52" value="page" style="rounded=1;whiteSpace=wrap;html=1;" parent="1" vertex="1">
          <mxGeometry x="30" y="860" width="130" height="250" as="geometry" />
        </mxCell>
        <mxCell id="t9nCofjm7gqaK9wJMrFR-54" value="async_card A" style="rounded=0;whiteSpace=wrap;html=1;" parent="1" vertex="1">
          <mxGeometry x="55" y="1189" width="80" height="35.5" as="geometry" />
        </mxCell>
        <mxCell id="t9nCofjm7gqaK9wJMrFR-55" value="async_card B" style="rounded=0;whiteSpace=wrap;html=1;" parent="1" vertex="1">
          <mxGeometry x="55" y="1249" width="80" height="40" as="geometry" />
        </mxCell>
        <mxCell id="t9nCofjm7gqaK9wJMrFR-56" value="async_card C" style="rounded=0;whiteSpace=wrap;html=1;" parent="1" vertex="1">
          <mxGeometry x="55" y="1309" width="80" height="40" as="geometry" />
        </mxCell>
        <mxCell id="t9nCofjm7gqaK9wJMrFR-57" value="async_card D" style="rounded=0;whiteSpace=wrap;html=1;" parent="1" vertex="1">
          <mxGeometry x="55" y="1369" width="80" height="40" as="geometry" />
        </mxCell>
        <mxCell id="t9nCofjm7gqaK9wJMrFR-58" style="edgeStyle=none;rounded=0;orthogonalLoop=1;jettySize=auto;html=1;exitX=1;exitY=1;exitDx=0;exitDy=0;dashed=1;" parent="1" source="t9nCofjm7gqaK9wJMrFR-56" target="t9nCofjm7gqaK9wJMrFR-56" edge="1">
          <mxGeometry relative="1" as="geometry" />
        </mxCell>
        <mxCell id="t9nCofjm7gqaK9wJMrFR-59" style="edgeStyle=none;rounded=0;orthogonalLoop=1;jettySize=auto;html=1;exitX=1;exitY=1;exitDx=0;exitDy=0;dashed=1;" parent="1" source="t9nCofjm7gqaK9wJMrFR-53" target="t9nCofjm7gqaK9wJMrFR-53" edge="1">
          <mxGeometry relative="1" as="geometry" />
        </mxCell>
        <mxCell id="t9nCofjm7gqaK9wJMrFR-60" style="edgeStyle=none;rounded=0;orthogonalLoop=1;jettySize=auto;html=1;exitX=0.5;exitY=0;exitDx=0;exitDy=0;dashed=1;" parent="1" source="t9nCofjm7gqaK9wJMrFR-53" target="t9nCofjm7gqaK9wJMrFR-53" edge="1">
          <mxGeometry relative="1" as="geometry" />
        </mxCell>
        <mxCell id="t9nCofjm7gqaK9wJMrFR-62" value="card_A" style="rounded=0;whiteSpace=wrap;html=1;" parent="1" vertex="1">
          <mxGeometry x="55" y="1520" width="80" height="35.5" as="geometry" />
        </mxCell>
        <mxCell id="t9nCofjm7gqaK9wJMrFR-63" value="card_B" style="rounded=0;whiteSpace=wrap;html=1;" parent="1" vertex="1">
          <mxGeometry x="55" y="1580" width="80" height="40" as="geometry" />
        </mxCell>
        <mxCell id="t9nCofjm7gqaK9wJMrFR-64" value="card_C" style="rounded=0;whiteSpace=wrap;html=1;" parent="1" vertex="1">
          <mxGeometry x="55" y="1640" width="80" height="40" as="geometry" />
        </mxCell>
        <mxCell id="t9nCofjm7gqaK9wJMrFR-65" value="card_D" style="rounded=0;whiteSpace=wrap;html=1;" parent="1" vertex="1">
          <mxGeometry x="55" y="1700" width="80" height="40" as="geometry" />
        </mxCell>
        <mxCell id="t9nCofjm7gqaK9wJMrFR-66" style="edgeStyle=none;rounded=0;orthogonalLoop=1;jettySize=auto;html=1;exitX=1;exitY=1;exitDx=0;exitDy=0;dashed=1;" parent="1" source="t9nCofjm7gqaK9wJMrFR-64" target="t9nCofjm7gqaK9wJMrFR-64" edge="1">
          <mxGeometry relative="1" as="geometry" />
        </mxCell>
        <mxCell id="t9nCofjm7gqaK9wJMrFR-67" style="edgeStyle=none;rounded=0;orthogonalLoop=1;jettySize=auto;html=1;exitX=1;exitY=1;exitDx=0;exitDy=0;dashed=1;" parent="1" source="t9nCofjm7gqaK9wJMrFR-61" target="t9nCofjm7gqaK9wJMrFR-61" edge="1">
          <mxGeometry relative="1" as="geometry" />
        </mxCell>
        <mxCell id="t9nCofjm7gqaK9wJMrFR-68" style="edgeStyle=none;rounded=0;orthogonalLoop=1;jettySize=auto;html=1;exitX=0.5;exitY=0;exitDx=0;exitDy=0;dashed=1;" parent="1" source="t9nCofjm7gqaK9wJMrFR-61" target="t9nCofjm7gqaK9wJMrFR-61" edge="1">
          <mxGeometry relative="1" as="geometry" />
        </mxCell>
        <mxCell id="6w-f6-EQmlh_0rkee04y-7" value="1" style="text;html=1;align=center;verticalAlign=middle;resizable=0;points=[];autosize=1;strokeColor=none;" vertex="1" parent="1">
          <mxGeometry x="310" y="950" width="20" height="20" as="geometry" />
        </mxCell>
        <mxCell id="6w-f6-EQmlh_0rkee04y-8" value="2 page_model" style="text;html=1;align=center;verticalAlign=middle;resizable=0;points=[];autosize=1;strokeColor=none;" vertex="1" parent="1">
          <mxGeometry x="275" y="1050" width="90" height="20" as="geometry" />
        </mxCell>
      </root>
    </mxGraphModel>
  </diagram>
</mxfile>
